# xmcd
#
# Track frame offsets:
#	150
#	21572
#	38714
#	52432
#	67100
#	84761
#	97024
#	110023
#	124525
#	141847
#	154996
#	168846
#	181010
#	191628
#
# Disc length: 2850 seconds
#
# Revision: 1
# Processed by: cddbd v1.5.2PL0 Copyright (c) Steve Scherf et al.
# Submitted via: audiograbber 1.83.01
#
DISCID=c40b200e
DTITLE=Martin Comeau - Destin D'Cowboy
DYEAR=1900
DGENRE=Country
TTITLE0=Destin D'Cowboy(Martin Comeau-Martin Comeau)
TTITLE1=Chevalier Du Ciel(S.Jones-André Breton)
TTITLE2=Fais Ta Prière Johny(Marthe St-Pierre-Marthe St Pierre)
TTITLE3=Mon Petit Frère(Les Editions Georges Hamel)
TTITLE4=Demain Il Sera Peut-Être Trop Tard(Marthe St-Pierre-Marthe St-Pierre)
TTITLE5=La Toune Du Ti-Galop(Martin Comeau-Martin Comeau)
TTITLE6=La Femme Qui Se Tait(Denis Champoux-Denis Champoux)
TTITLE7=Un Royaume D'amour(Albert Babin-Albert Babin)
TTITLE8=On Parle De Lui(Marthe St-Pierre-Marthe St-Pierre)
TTITLE9=Sort Ta Guitare(Martin Comeau-Martin Comeau)
TTITLE10=L'homme En Noir(Marthe St-Pierre-Marthe St-Pierre)
TTITLE11=Quand Je Prends Ma Guitare(Martin Comeau-Martin Comeau)
TTITLE12=Recherché(Martin Comeau-Martin Comeau)
TTITLE13=Vieux Vagabond(Marthe St-Pierre-Marthe St-Pierre)
EXTD=
EXTT0=
EXTT1=
EXTT2=
EXTT3=
EXTT4=
EXTT5=
EXTT6=
EXTT7=
EXTT8=
EXTT9=
EXTT10=
EXTT11=
EXTT12=
EXTT13=
PLAYORDER=
